<svg width="1023" height="883" xmlns="http://www.w3.org/2000/svg" xmlns:xlink="http://www.w3.org/1999/xlink" xml:space="preserve" overflow="hidden"><defs><clipPath id="clip0"><rect x="2668" y="1051" width="1023" height="883"/></clipPath></defs><g clip-path="url(#clip0)" transform="translate(-2668 -1051)"><rect x="2787" y="1272" width="100" height="83.0002" stroke="#15253B" stroke-width="27.5" stroke-miterlimit="8" fill="#15253B"/><path d="M3514.58 1524.69C3503.72 1524.69 3494.92 1533.51 3494.92 1544.38 3494.92 1555.26 3503.72 1564.08 3514.58 1564.08 3525.45 1564.08 3534.25 1555.26 3534.25 1544.38 3534.25 1533.51 3525.45 1524.69 3514.58 1524.69ZM2734.41 1397 3624.59 1397C3661.27 1397 3691 1426.77 3691 1463.5L3691 1729.5C3691 1766.23 3661.27 1796 3624.59 1796L3484.88 1796 3484.88 1695.88 3572.62 1695.88 3572.62 1667.72 2786.38 1667.72 2786.38 1695.88 2873.97 1695.88 2873.97 1796 2734.41 1796C2697.73 1796 2668 1766.23 2668 1729.5L2668 1463.5C2668 1426.77 2697.73 1397 2734.41 1397Z" fill="#15253B" fill-rule="evenodd"/><path d="M2887 1065 3338.19 1065 3472 1198.54 3472 1410 2887 1410Z" stroke="#15253B" stroke-width="27.5" stroke-miterlimit="8" fill="none" fill-rule="evenodd"/><rect x="2943" y="1829" width="224" height="26.9998" fill="#15253B"/><rect x="3200" y="1829" width="224" height="26.9998" fill="#15253B"/><rect x="2943" y="1758" width="224" height="28.0002" fill="#15253B"/><rect x="3200" y="1758" width="224" height="28.0002" fill="#15253B"/><path d="M3342 1195 3342 1065 3472 1195Z" stroke="#15253B" stroke-width="27.5" stroke-linecap="round" stroke-linejoin="round" stroke-miterlimit="10" fill="none" fill-rule="evenodd"/><rect x="3472" y="1272" width="101" height="83.0002" stroke="#15253B" stroke-width="27.5" stroke-miterlimit="8" fill="#15253B"/><rect x="2873" y="1696" width="27.9998" height="238" fill="#15253B"/><rect x="3458" y="1696" width="27.9998" height="238" fill="#15253B"/><rect x="2895" y="1907" width="568" height="26.9998" fill="#15253B"/></g></svg>